<svg xmlns="http://www.w3.org/2000/svg" xmlns:xlink="http://www.w3.org/1999/xlink" viewBox="0 0 188.7 179.25"><defs><style>.cls-1{fill:none;}.cls-2{isolation:isolate;}.cls-3{mix-blend-mode:multiply;}.cls-4{clip-path:url(#clip-path);}.cls-5{fill:#e10614;}.cls-6{clip-path:url(#clip-path-2);}.cls-7{fill:#652381;}.cls-8{clip-path:url(#clip-path-3);}.cls-9{fill:#e51b73;}.cls-10{clip-path:url(#clip-path-4);}.cls-11{fill:#f7b033;}.cls-12{fill:#a0195b;}.cls-13{clip-path:url(#clip-path-5);}.cls-14{clip-path:url(#clip-path-6);}.cls-15{fill:#3aa836;}.cls-16{clip-path:url(#clip-path-7);}.cls-17{fill:#c89b66;}.cls-18{clip-path:url(#clip-path-8);}.cls-19{fill:#ef887c;}.cls-20{clip-path:url(#clip-path-9);}.cls-21{fill:#36a8df;}.cls-22{clip-path:url(#clip-path-10);}.cls-23{fill:#ffec00;}.cls-24{clip-path:url(#clip-path-11);}.cls-25{fill:#c8b99d;}.cls-26{clip-path:url(#clip-path-12);}.cls-27{fill:#858585;}.cls-28{clip-path:url(#clip-path-13);}.cls-29{fill:#b0b0af;}.cls-30{clip-path:url(#clip-path-14);}.cls-31{fill:#1b71b6;}.cls-32{clip-path:url(#clip-path-15);}.cls-33{fill:#e74e1b;}.cls-34{clip-path:url(#clip-path-16);}.cls-35{clip-path:url(#clip-path-17);}.cls-36{clip-path:url(#clip-path-18);}.cls-37{clip-path:url(#clip-path-19);}.cls-38{clip-path:url(#clip-path-20);}.cls-39{fill:#683c11;}.cls-40{clip-path:url(#clip-path-21);}.cls-41{clip-path:url(#clip-path-22);}.cls-42{clip-path:url(#clip-path-23);}.cls-43{fill:#009f98;}.cls-44{clip-path:url(#clip-path-24);}.cls-45{clip-path:url(#clip-path-25);}.cls-46{clip-path:url(#clip-path-26);}.cls-47{clip-path:url(#clip-path-27);}.cls-48{clip-path:url(#clip-path-28);}.cls-49{clip-path:url(#clip-path-29);}.cls-50{clip-path:url(#clip-path-30);}.cls-51{clip-path:url(#clip-path-31);}.cls-52{clip-path:url(#clip-path-32);}.cls-53{clip-path:url(#clip-path-33);}.cls-54{clip-path:url(#clip-path-34);}.cls-55{clip-path:url(#clip-path-35);}.cls-56{clip-path:url(#clip-path-36);}.cls-57{clip-path:url(#clip-path-37);}.cls-58{clip-path:url(#clip-path-38);}.cls-59{clip-path:url(#clip-path-39);}.cls-60{clip-path:url(#clip-path-40);}.cls-61{clip-path:url(#clip-path-41);}.cls-62{clip-path:url(#clip-path-42);}.cls-63{clip-path:url(#clip-path-43);}.cls-64{clip-path:url(#clip-path-44);}.cls-65{clip-path:url(#clip-path-45);}.cls-66{clip-path:url(#clip-path-46);}.cls-67{clip-path:url(#clip-path-47);}.cls-68{clip-path:url(#clip-path-48);}.cls-69{clip-path:url(#clip-path-49);}.cls-70{clip-path:url(#clip-path-50);}.cls-71{clip-path:url(#clip-path-51);}.cls-72{clip-path:url(#clip-path-52);}.cls-73{clip-path:url(#clip-path-53);}.cls-74{clip-path:url(#clip-path-54);}.cls-75{clip-path:url(#clip-path-55);}.cls-76{clip-path:url(#clip-path-56);}.cls-77{clip-path:url(#clip-path-57);}.cls-78{clip-path:url(#clip-path-58);}.cls-79{clip-path:url(#clip-path-59);}</style><clipPath id="clip-path" transform="translate(0 0)"><rect class="cls-1" x="72.29" y="54" width="26.53" height="26.48"/></clipPath><clipPath id="clip-path-2" transform="translate(0 0)"><rect class="cls-1" x="29.36" y="40.47" width="26.53" height="26.48"/></clipPath><clipPath id="clip-path-3" transform="translate(0 0)"><rect class="cls-1" x="26.08" y="53.11" width="26.54" height="26.48"/></clipPath><clipPath id="clip-path-4" transform="translate(0 0)"><rect class="cls-1" x="41.43" y="21.87" width="26.54" height="26.48"/></clipPath><clipPath id="clip-path-5" transform="translate(0 0)"><rect class="cls-1" x="25.06" y="152.77" width="26.54" height="26.48"/></clipPath><clipPath id="clip-path-6" transform="translate(0 0)"><rect class="cls-1" x="66.02" y="147" width="26.53" height="26.48"/></clipPath><clipPath id="clip-path-7" transform="translate(0 0)"><rect class="cls-1" x="26.08" y="108.75" width="26.54" height="26.48"/></clipPath><clipPath id="clip-path-8" transform="translate(0 0)"><rect class="cls-1" x="66.92" y="98.19" width="26.54" height="26.48"/></clipPath><clipPath id="clip-path-9" transform="translate(0 0)"><rect class="cls-1" x="72.29" width="26.53" height="26.48"/></clipPath><clipPath id="clip-path-10" transform="translate(0 0)"><rect class="cls-1" x="26.08" y="88.82" width="26.54" height="26.48"/></clipPath><clipPath id="clip-path-11" transform="translate(0 0)"><rect class="cls-1" x="13.27" y="72.75" width="26.53" height="26.48"/></clipPath><clipPath id="clip-path-12" transform="translate(0 0)"><rect class="cls-1" x="47.1" y="64.31" width="26.53" height="26.48"/></clipPath><clipPath id="clip-path-13" transform="translate(0 0)"><rect class="cls-1" x="50.06" y="133.75" width="26.53" height="26.48"/></clipPath><clipPath id="clip-path-14" transform="translate(0 0)"><rect class="cls-1" x="50.06" y="88.89" width="26.53" height="26.48"/></clipPath><clipPath id="clip-path-15" transform="translate(0 0)"><rect class="cls-1" x="134.9" y="139.95" width="26.53" height="26.48"/></clipPath><clipPath id="clip-path-16" transform="translate(0 0)"><rect class="cls-1" x="148.17" y="104.86" width="24.1" height="24.06"/></clipPath><clipPath id="clip-path-17" transform="translate(0 0)"><rect class="cls-1" x="144.79" y="64.18" width="24.1" height="24.06"/></clipPath><clipPath id="clip-path-18" transform="translate(0 0)"><rect class="cls-1" x="133.01" y="65.78" width="24.1" height="24.06"/></clipPath><clipPath id="clip-path-19" transform="translate(0 0)"><rect class="cls-1" x="164.6" y="67.91" width="24.1" height="24.06"/></clipPath><clipPath id="clip-path-20" transform="translate(0 0)"><rect class="cls-1" x="112.06" y="116.81" width="24.1" height="24.06"/></clipPath><clipPath id="clip-path-21" transform="translate(0 0)"><rect class="cls-1" x="79.35" y="23.08" width="24.1" height="24.06"/></clipPath><clipPath id="clip-path-22" transform="translate(0 0)"><rect class="cls-1" x="91.54" y="92.83" width="24.1" height="24.06"/></clipPath><clipPath id="clip-path-23" transform="translate(0 0)"><rect class="cls-1" x="86.77" y="116.81" width="24.1" height="24.06"/></clipPath><clipPath id="clip-path-24" transform="translate(0 0)"><rect class="cls-1" x="135.21" y="38.01" width="24.1" height="24.06"/></clipPath><clipPath id="clip-path-25" transform="translate(0 0)"><rect class="cls-1" x="102.94" y="78.07" width="24.1" height="24.06"/></clipPath><clipPath id="clip-path-26" transform="translate(0 0)"><rect class="cls-1" x="112.06" y="61.79" width="24.1" height="24.06"/></clipPath><clipPath id="clip-path-27" transform="translate(0 0)"><rect class="cls-1" x="130.82" y="87.27" width="24.1" height="24.06"/></clipPath><clipPath id="clip-path-28" transform="translate(0 0)"><rect class="cls-1" x="102.94" y="151.31" width="24.1" height="24.06"/></clipPath><clipPath id="clip-path-29" transform="translate(0 0)"><rect class="cls-1" x="91.4" y="53.16" width="24.1" height="24.06"/></clipPath><clipPath id="clip-path-30" transform="translate(0 0)"><rect class="cls-1" x="123.16" y="23.08" width="24.1" height="24.06"/></clipPath><clipPath id="clip-path-31" transform="translate(0 0)"><rect class="cls-1" x="75.32" y="82.5" width="13.89" height="13.86"/></clipPath><clipPath id="clip-path-32" transform="translate(0 0)"><rect class="cls-1" x="53.39" y="91.1" width="13.89" height="13.86"/></clipPath><clipPath id="clip-path-33" transform="translate(0 0)"><rect class="cls-1" x="56.21" y="97.32" width="13.89" height="13.86"/></clipPath><clipPath id="clip-path-34" transform="translate(0 0)"><rect class="cls-1" x="52.16" y="79.56" width="13.89" height="13.86"/></clipPath><clipPath id="clip-path-35" transform="translate(0 0)"><rect class="cls-1" x="89.22" y="138.06" width="13.89" height="13.86"/></clipPath><clipPath id="clip-path-36" transform="translate(0 0)"><rect class="cls-1" x="103.44" y="122.41" width="13.89" height="13.86"/></clipPath><clipPath id="clip-path-37" transform="translate(0 0)"><rect class="cls-1" x="74.57" y="119.97" width="13.89" height="13.86"/></clipPath><clipPath id="clip-path-38" transform="translate(0 0)"><rect class="cls-1" x="85.91" y="95.06" width="13.89" height="13.86"/></clipPath><clipPath id="clip-path-39" transform="translate(0 0)"><rect class="cls-1" x="57.51" y="60.52" width="13.89" height="13.86"/></clipPath><clipPath id="clip-path-40" transform="translate(0 0)"><rect class="cls-1" x="67.99" y="111.86" width="13.89" height="13.86"/></clipPath><clipPath id="clip-path-41" transform="translate(0 0)"><rect class="cls-1" x="57.48" y="109.53" width="13.89" height="13.86"/></clipPath><clipPath id="clip-path-42" transform="translate(0 0)"><rect class="cls-1" x="68.46" y="94.98" width="13.89" height="13.86"/></clipPath><clipPath id="clip-path-43" transform="translate(0 0)"><rect class="cls-1" x="92.57" y="122.27" width="13.89" height="13.86"/></clipPath><clipPath id="clip-path-44" transform="translate(0 0)"><rect class="cls-1" x="77.78" y="104.01" width="13.89" height="13.86"/></clipPath><clipPath id="clip-path-45" transform="translate(0 0)"><rect class="cls-1" x="129.15" y="96.91" width="13.89" height="13.86"/></clipPath><clipPath id="clip-path-46" transform="translate(0 0)"><rect class="cls-1" x="122.72" y="78.81" width="12.62" height="12.59"/></clipPath><clipPath id="clip-path-47" transform="translate(0 0)"><rect class="cls-1" x="111.91" y="53.59" width="12.62" height="12.59"/></clipPath><clipPath id="clip-path-48" transform="translate(0 0)"><rect class="cls-1" x="103.66" y="67.88" width="12.62" height="12.59"/></clipPath><clipPath id="clip-path-49" transform="translate(0 0)"><rect class="cls-1" x="117.22" y="58.37" width="12.62" height="12.59"/></clipPath><clipPath id="clip-path-50" transform="translate(0 0)"><rect class="cls-1" x="116.13" y="95.23" width="12.62" height="12.59"/></clipPath><clipPath id="clip-path-51" transform="translate(0 0)"><rect class="cls-1" x="67.74" y="68.14" width="12.62" height="12.59"/></clipPath><clipPath id="clip-path-52" transform="translate(0 0)"><rect class="cls-1" x="95.7" y="92.52" width="12.62" height="12.59"/></clipPath><clipPath id="clip-path-53" transform="translate(0 0)"><rect class="cls-1" x="95.4" y="55.86" width="12.62" height="12.59"/></clipPath><clipPath id="clip-path-54" transform="translate(0 0)"><rect class="cls-1" x="95.48" y="82.77" width="12.62" height="12.59"/></clipPath><clipPath id="clip-path-55" transform="translate(0 0)"><rect class="cls-1" x="93.82" y="73.14" width="12.62" height="12.59"/></clipPath><clipPath id="clip-path-56" transform="translate(0 0)"><rect class="cls-1" x="109.86" y="77.35" width="12.62" height="12.59"/></clipPath><clipPath id="clip-path-57" transform="translate(0 0)"><rect class="cls-1" x="117.71" y="108.67" width="12.62" height="12.59"/></clipPath><clipPath id="clip-path-58" transform="translate(0 0)"><rect class="cls-1" x="82.56" y="76.42" width="12.62" height="12.59"/></clipPath><clipPath id="clip-path-59" transform="translate(0 0)"><rect class="cls-1" x="85.57" y="53.74" width="12.62" height="12.59"/></clipPath></defs><g class="cls-2"><g id="Layer_2" data-name="Layer 2"><g id="Layer_1-2" data-name="Layer 1"><g class="cls-3"><g class="cls-4"><path class="cls-5" d="M85.55,80.49A13.25,13.25,0,1,1,98.82,67.25,13.26,13.26,0,0,1,85.55,80.49" transform="translate(0 0)"/></g></g><g class="cls-3"><g class="cls-6"><path class="cls-7" d="M42.63,67A13.24,13.24,0,1,1,55.9,53.71,13.26,13.26,0,0,1,42.63,67" transform="translate(0 0)"/></g></g><g class="cls-3"><g class="cls-8"><path class="cls-9" d="M39.34,79.59A13.24,13.24,0,1,1,52.61,66.35,13.25,13.25,0,0,1,39.34,79.59" transform="translate(0 0)"/></g></g><g class="cls-3"><g class="cls-10"><path class="cls-11" d="M54.7,48.35A13.24,13.24,0,1,1,68,35.11,13.26,13.26,0,0,1,54.7,48.35" transform="translate(0 0)"/></g></g><path class="cls-12" d="M13.27,81.15A13.24,13.24,0,1,1,26.54,67.91,13.26,13.26,0,0,1,13.27,81.15" transform="translate(0 0)"/><g class="cls-3"><g class="cls-13"><path class="cls-7" d="M38.32,179.25A13.24,13.24,0,1,1,51.59,166a13.25,13.25,0,0,1-13.27,13.24" transform="translate(0 0)"/></g></g><g class="cls-3"><g class="cls-14"><path class="cls-15" d="M79.29,173.48a13.24,13.24,0,1,1,13.26-13.24,13.26,13.26,0,0,1-13.26,13.24" transform="translate(0 0)"/></g></g><g class="cls-3"><g class="cls-16"><path class="cls-17" d="M39.34,135.23A13.24,13.24,0,1,1,52.61,122a13.25,13.25,0,0,1-13.27,13.24" transform="translate(0 0)"/></g></g><g class="cls-3"><g class="cls-18"><path class="cls-19" d="M80.19,124.67a13.24,13.24,0,1,1,13.26-13.24,13.26,13.26,0,0,1-13.26,13.24" transform="translate(0 0)"/></g></g><g class="cls-3"><g class="cls-20"><path class="cls-21" d="M85.55,26.48A13.24,13.24,0,1,1,98.82,13.24,13.26,13.26,0,0,1,85.55,26.48" transform="translate(0 0)"/></g></g><g class="cls-3"><g class="cls-22"><path class="cls-23" d="M39.34,115.3a13.24,13.24,0,1,1,13.27-13.24A13.25,13.25,0,0,1,39.34,115.3" transform="translate(0 0)"/></g></g><g class="cls-3"><g class="cls-24"><path class="cls-25" d="M26.53,99.23A13.24,13.24,0,1,1,39.8,86,13.25,13.25,0,0,1,26.53,99.23" transform="translate(0 0)"/></g></g><g class="cls-3"><g class="cls-26"><path class="cls-27" d="M60.36,90.79A13.24,13.24,0,1,1,73.63,77.55,13.26,13.26,0,0,1,60.36,90.79" transform="translate(0 0)"/></g></g><g class="cls-3"><g class="cls-28"><path class="cls-29" d="M63.32,160.24A13.25,13.25,0,1,1,76.59,147a13.25,13.25,0,0,1-13.27,13.24" transform="translate(0 0)"/></g></g><g class="cls-3"><g class="cls-30"><path class="cls-31" d="M63.32,115.38a13.25,13.25,0,1,1,13.27-13.25,13.26,13.26,0,0,1-13.27,13.25" transform="translate(0 0)"/></g></g><g class="cls-3"><g class="cls-32"><path class="cls-33" d="M148.16,166.44a13.25,13.25,0,1,1,13.27-13.25,13.26,13.26,0,0,1-13.27,13.25" transform="translate(0 0)"/></g></g><g class="cls-3"><g class="cls-34"><path class="cls-5" d="M149.07,121.45A12,12,0,1,1,164.78,128a12,12,0,0,1-15.71-6.57" transform="translate(0 0)"/></g></g><g class="cls-3"><g class="cls-35"><path class="cls-7" d="M145.69,80.77a12,12,0,1,1,15.72,6.57,12,12,0,0,1-15.72-6.57" transform="translate(0 0)"/></g></g><g class="cls-3"><g class="cls-36"><path class="cls-9" d="M133.91,82.37a12,12,0,1,1,15.72,6.57,12,12,0,0,1-15.72-6.57" transform="translate(0 0)"/></g></g><g class="cls-3"><g class="cls-37"><path class="cls-11" d="M165.5,84.5a12,12,0,1,1,15.72,6.57A12,12,0,0,1,165.5,84.5" transform="translate(0 0)"/></g></g><path class="cls-12" d="M104.49,42.41A12,12,0,1,1,120.21,49a12,12,0,0,1-15.72-6.57" transform="translate(0 0)"/><g class="cls-3"><g class="cls-38"><path class="cls-39" d="M113,133.4A12,12,0,1,1,128.68,140,12,12,0,0,1,113,133.4" transform="translate(0 0)"/></g></g><g class="cls-3"><g class="cls-40"><path class="cls-15" d="M80.25,39.67A12,12,0,1,1,96,46.24a12,12,0,0,1-15.72-6.57" transform="translate(0 0)"/></g></g><g class="cls-3"><g class="cls-41"><path class="cls-17" d="M92.44,109.41A12,12,0,1,1,108.16,116a12,12,0,0,1-15.72-6.58" transform="translate(0 0)"/></g></g><g class="cls-3"><g class="cls-42"><path class="cls-43" d="M87.67,133.4A12,12,0,1,1,103.38,140a12,12,0,0,1-15.71-6.57" transform="translate(0 0)"/></g></g><g class="cls-3"><g class="cls-44"><path class="cls-21" d="M136.12,54.6a12,12,0,1,1,15.71,6.57,12,12,0,0,1-15.71-6.57" transform="translate(0 0)"/></g></g><g class="cls-3"><g class="cls-45"><path class="cls-23" d="M103.85,94.66a12,12,0,1,1,15.72,6.57,12,12,0,0,1-15.72-6.57" transform="translate(0 0)"/></g></g><g class="cls-3"><g class="cls-46"><path class="cls-25" d="M113,78.38A12,12,0,1,1,128.68,85,12,12,0,0,1,113,78.38" transform="translate(0 0)"/></g></g><g class="cls-3"><g class="cls-47"><path class="cls-27" d="M131.72,103.86a12,12,0,1,1,15.72,6.57,12,12,0,0,1-15.72-6.57" transform="translate(0 0)"/></g></g><g class="cls-3"><g class="cls-48"><path class="cls-29" d="M103.85,167.9a12,12,0,1,1,15.72,6.57,12,12,0,0,1-15.72-6.57" transform="translate(0 0)"/></g></g><g class="cls-3"><g class="cls-49"><path class="cls-31" d="M92.3,69.75A12,12,0,1,1,108,76.32,12,12,0,0,1,92.3,69.75" transform="translate(0 0)"/></g></g><g class="cls-3"><g class="cls-50"><path class="cls-33" d="M124.07,39.67a12,12,0,1,1,15.71,6.57,12,12,0,0,1-15.71-6.57" transform="translate(0 0)"/></g></g><path class="cls-5" d="M86.05,99.4a9.57,9.57,0,1,1-9.57-9.56,9.56,9.56,0,0,1,9.57,9.56" transform="translate(0 0)"/><path class="cls-7" d="M76.27,130.32a9.58,9.58,0,1,1-9.58-9.56,9.57,9.57,0,0,1,9.58,9.56" transform="translate(0 0)"/><path class="cls-9" d="M85.4,132.68a9.57,9.57,0,1,1-9.57-9.55,9.56,9.56,0,0,1,9.57,9.55" transform="translate(0 0)"/><path class="cls-11" d="M62.82,121.62a9.57,9.57,0,1,1-9.57-9.56,9.57,9.57,0,0,1,9.57,9.56" transform="translate(0 0)"/><path class="cls-12" d="M86.53,151.47A9.57,9.57,0,1,1,77,141.91a9.57,9.57,0,0,1,9.57,9.56" transform="translate(0 0)"/><path class="cls-39" d="M157.76,132.68a9.57,9.57,0,1,1-9.57-9.55,9.56,9.56,0,0,1,9.57,9.55" transform="translate(0 0)"/><path class="cls-15" d="M156.18,105.75a9.57,9.57,0,1,1-9.57-9.55,9.57,9.57,0,0,1,9.57,9.55" transform="translate(0 0)"/><path class="cls-17" d="M125.63,132.68a9.57,9.57,0,1,1-9.57-9.55,9.57,9.57,0,0,1,9.57,9.55" transform="translate(0 0)"/><path class="cls-43" d="M118,103.26a9.58,9.58,0,1,1-9.58-9.56,9.57,9.57,0,0,1,9.58,9.56" transform="translate(0 0)"/><path class="cls-21" d="M47,99.4a9.58,9.58,0,1,1-9.57-9.56A9.57,9.57,0,0,1,47,99.4" transform="translate(0 0)"/><path class="cls-23" d="M111.22,132.68a9.58,9.58,0,1,1-9.57-9.55,9.57,9.57,0,0,1,9.57,9.55" transform="translate(0 0)"/><path class="cls-25" d="M99.6,141.91A9.57,9.57,0,1,1,90,132.35a9.56,9.56,0,0,1,9.57,9.56" transform="translate(0 0)"/><path class="cls-27" d="M93.5,117.54A9.57,9.57,0,1,1,83.93,108a9.57,9.57,0,0,1,9.57,9.56" transform="translate(0 0)"/><path class="cls-29" d="M143.71,115.41a9.58,9.58,0,1,1-9.57-9.56,9.57,9.57,0,0,1,9.57,9.56" transform="translate(0 0)"/><path class="cls-31" d="M111.28,115.41a9.58,9.58,0,1,1-9.58-9.56,9.57,9.57,0,0,1,9.58,9.56" transform="translate(0 0)"/><path class="cls-33" d="M148.19,57.88a9.58,9.58,0,1,1-9.57-9.55,9.57,9.57,0,0,1,9.57,9.55" transform="translate(0 0)"/><path class="cls-5" d="M115.66,53.64a8.68,8.68,0,1,1,4.75-11.32,8.7,8.7,0,0,1-4.75,11.32" transform="translate(0 0)"/><path class="cls-7" d="M86.26,56.08A8.68,8.68,0,1,1,91,44.75a8.71,8.71,0,0,1-4.75,11.33" transform="translate(0 0)"/><path class="cls-9" d="M87.41,64.56a8.68,8.68,0,1,1,4.75-11.32,8.7,8.7,0,0,1-4.75,11.32" transform="translate(0 0)"/><path class="cls-11" d="M89,41.8A8.68,8.68,0,1,1,93.7,30.48,8.7,8.7,0,0,1,89,41.8" transform="translate(0 0)"/><path class="cls-12" d="M58.52,85.75a8.68,8.68,0,1,1,4.75-11.32,8.7,8.7,0,0,1-4.75,11.32" transform="translate(0 0)"/><path class="cls-39" d="M124.3,79.65a8.68,8.68,0,1,1,4.75-11.32,8.7,8.7,0,0,1-4.75,11.32" transform="translate(0 0)"/><path class="cls-15" d="M56.54,103.21a8.68,8.68,0,1,1,4.75-11.32,8.69,8.69,0,0,1-4.75,11.32" transform="translate(0 0)"/><path class="cls-17" d="M107,94.43a8.68,8.68,0,1,1,4.75-11.32A8.7,8.7,0,0,1,107,94.43" transform="translate(0 0)"/><path class="cls-43" d="M124.3,97.87a8.68,8.68,0,1,1,4.75-11.32,8.7,8.7,0,0,1-4.75,11.32" transform="translate(0 0)"/><path class="cls-21" d="M67.34,63a8.68,8.68,0,1,1,4.75-11.32A8.7,8.7,0,0,1,67.34,63" transform="translate(0 0)"/><path class="cls-23" d="M97.31,96.28A8.68,8.68,0,1,1,102.06,85a8.7,8.7,0,0,1-4.75,11.32" transform="translate(0 0)"/><path class="cls-25" d="M84.53,79.65a8.68,8.68,0,1,1,4.75-11.32,8.7,8.7,0,0,1-4.75,11.32" transform="translate(0 0)"/><path class="cls-27" d="M103,66.14a8.68,8.68,0,1,1,4.75-11.32A8.7,8.7,0,0,1,103,66.14" transform="translate(0 0)"/><path class="cls-29" d="M152.84,93.4a8.68,8.68,0,1,1,4.75-11.32,8.69,8.69,0,0,1-4.75,11.32" transform="translate(0 0)"/><path class="cls-31" d="M78.29,94.53A8.68,8.68,0,1,1,83,83.21a8.7,8.7,0,0,1-4.75,11.32" transform="translate(0 0)"/><path class="cls-33" d="M56.54,71.65a8.68,8.68,0,1,1,4.75-11.32,8.7,8.7,0,0,1-4.75,11.32" transform="translate(0 0)"/><g class="cls-3"><g class="cls-51"><path class="cls-5" d="M86.63,94.83a6.94,6.94,0,1,1,1-9.75,7,7,0,0,1-1,9.75" transform="translate(0 0)"/></g></g><g class="cls-3"><g class="cls-52"><path class="cls-7" d="M64.7,103.42a6.94,6.94,0,1,1,1-9.75,7,7,0,0,1-1,9.75" transform="translate(0 0)"/></g></g><g class="cls-3"><g class="cls-53"><path class="cls-9" d="M67.53,109.65a6.94,6.94,0,1,1,1-9.75,7,7,0,0,1-1,9.75" transform="translate(0 0)"/></g></g><g class="cls-3"><g class="cls-54"><path class="cls-11" d="M63.48,91.89a6.94,6.94,0,1,1,1-9.75,7,7,0,0,1-1,9.75" transform="translate(0 0)"/></g></g><path class="cls-12" d="M57.43,118.85a6.94,6.94,0,1,1,1-9.75,7,7,0,0,1-1,9.75" transform="translate(0 0)"/><g class="cls-3"><g class="cls-55"><path class="cls-39" d="M100.54,150.38a6.94,6.94,0,1,1,1-9.75,7,7,0,0,1-1,9.75" transform="translate(0 0)"/></g></g><g class="cls-3"><g class="cls-56"><path class="cls-15" d="M114.75,134.73a6.94,6.94,0,1,1,1-9.75,7,7,0,0,1-1,9.75" transform="translate(0 0)"/></g></g><g class="cls-3"><g class="cls-57"><path class="cls-17" d="M85.88,132.29a6.94,6.94,0,1,1,1-9.75,7,7,0,0,1-1,9.75" transform="translate(0 0)"/></g></g><g class="cls-3"><g class="cls-58"><path class="cls-43" d="M97.22,107.38a6.94,6.94,0,1,1,1-9.75,6.94,6.94,0,0,1-1,9.75" transform="translate(0 0)"/></g></g><g class="cls-3"><g class="cls-59"><path class="cls-21" d="M68.82,72.85a6.94,6.94,0,1,1,1-9.76,7,7,0,0,1-1,9.76" transform="translate(0 0)"/></g></g><g class="cls-3"><g class="cls-60"><path class="cls-23" d="M79.3,124.18a6.94,6.94,0,1,1,1-9.75,6.94,6.94,0,0,1-1,9.75" transform="translate(0 0)"/></g></g><g class="cls-3"><g class="cls-61"><path class="cls-25" d="M68.79,121.85a6.94,6.94,0,1,1,1-9.75,6.94,6.94,0,0,1-1,9.75" transform="translate(0 0)"/></g></g><g class="cls-3"><g class="cls-62"><path class="cls-27" d="M79.78,107.3a6.94,6.94,0,1,1,1-9.75,7,7,0,0,1-1,9.75" transform="translate(0 0)"/></g></g><g class="cls-3"><g class="cls-63"><path class="cls-29" d="M103.89,134.59a6.94,6.94,0,1,1,1-9.75,7,7,0,0,1-1,9.75" transform="translate(0 0)"/></g></g><g class="cls-3"><g class="cls-64"><path class="cls-31" d="M89.09,116.33a6.94,6.94,0,1,1,1-9.75,7,7,0,0,1-1,9.75" transform="translate(0 0)"/></g></g><g class="cls-3"><g class="cls-65"><path class="cls-33" d="M140.46,109.23a6.94,6.94,0,1,1,1-9.75,6.94,6.94,0,0,1-1,9.75" transform="translate(0 0)"/></g></g><g class="cls-3"><g class="cls-66"><path class="cls-5" d="M126,90.62a6.3,6.3,0,1,1,8.56-2.49A6.29,6.29,0,0,1,126,90.62" transform="translate(0 0)"/></g></g><g class="cls-3"><g class="cls-67"><path class="cls-7" d="M115.18,65.41a6.3,6.3,0,1,1,8.57-2.5,6.29,6.29,0,0,1-8.57,2.5" transform="translate(0 0)"/></g></g><g class="cls-3"><g class="cls-68"><path class="cls-9" d="M106.93,79.7a6.3,6.3,0,1,1,8.57-2.49,6.3,6.3,0,0,1-8.57,2.49" transform="translate(0 0)"/></g></g><g class="cls-3"><g class="cls-69"><path class="cls-11" d="M120.49,70.18a6.3,6.3,0,1,1,8.57-2.49,6.28,6.28,0,0,1-8.57,2.49" transform="translate(0 0)"/></g></g><path class="cls-12" d="M81.78,73.1a6.3,6.3,0,1,1,8.56-2.49,6.29,6.29,0,0,1-8.56,2.49" transform="translate(0 0)"/><g class="cls-3"><g class="cls-70"><path class="cls-39" d="M119.4,107.05a6.3,6.3,0,1,1,8.56-2.5,6.3,6.3,0,0,1-8.56,2.5" transform="translate(0 0)"/></g></g><g class="cls-3"><g class="cls-71"><path class="cls-15" d="M71,80a6.3,6.3,0,1,1,8.57-2.49A6.28,6.28,0,0,1,71,80" transform="translate(0 0)"/></g></g><g class="cls-3"><g class="cls-72"><path class="cls-17" d="M99,104.34a6.3,6.3,0,1,1,8.56-2.5,6.29,6.29,0,0,1-8.56,2.5" transform="translate(0 0)"/></g></g><path class="cls-9" d="M110.33,117.46A6.3,6.3,0,1,1,118.9,115a6.29,6.29,0,0,1-8.57,2.49" transform="translate(0 0)"/><g class="cls-3"><g class="cls-73"><path class="cls-21" d="M98.68,67.67a6.3,6.3,0,1,1,8.56-2.49,6.28,6.28,0,0,1-8.56,2.49" transform="translate(0 0)"/></g></g><g class="cls-3"><g class="cls-74"><path class="cls-23" d="M98.75,94.58a6.3,6.3,0,1,1,8.57-2.49,6.29,6.29,0,0,1-8.57,2.49" transform="translate(0 0)"/></g></g><g class="cls-3"><g class="cls-75"><path class="cls-25" d="M97.09,85a6.3,6.3,0,1,1,8.57-2.49A6.29,6.29,0,0,1,97.09,85" transform="translate(0 0)"/></g></g><g class="cls-3"><g class="cls-76"><path class="cls-27" d="M113.13,89.17a6.3,6.3,0,1,1,8.56-2.5,6.3,6.3,0,0,1-8.56,2.5" transform="translate(0 0)"/></g></g><g class="cls-3"><g class="cls-77"><path class="cls-29" d="M121,120.49a6.3,6.3,0,1,1,8.56-2.5,6.3,6.3,0,0,1-8.56,2.5" transform="translate(0 0)"/></g></g><g class="cls-3"><g class="cls-78"><path class="cls-31" d="M85.84,88.24a6.3,6.3,0,1,1,8.56-2.5,6.29,6.29,0,0,1-8.56,2.5" transform="translate(0 0)"/></g></g><g class="cls-3"><g class="cls-79"><path class="cls-33" d="M88.85,65.56a6.3,6.3,0,1,1,8.56-2.5,6.29,6.29,0,0,1-8.56,2.5" transform="translate(0 0)"/></g></g></g></g></g></svg>